<svg width="98" height="17" viewBox="0 0 98 17" fill="none" xmlns="http://www.w3.org/2000/svg">
<path d="M3.872 11.936C2.72 11.936 1.78667 11.52 1.072 10.688C0.357333 9.856 0 8.688 0 7.184C0 5.97867 0.229333 4.864 0.688 3.84C1.15733 2.80533 1.82933 1.97333 2.704 1.344C3.58933 0.704 4.53867 0.384 5.552 0.384C6.576 0.384 7.41867 0.586666 8.08 0.992C8.752 1.39733 9.088 1.93067 9.088 2.592C9.088 3.24267 8.90667 3.76 8.544 4.144C8.11733 4.144 7.62667 4.05867 7.072 3.888C6.51733 3.71733 6.10133 3.50933 5.824 3.264L6.128 1.712C5.904 1.60533 5.68533 1.552 5.472 1.552C4.85333 1.552 4.30933 2.09067 3.84 3.168C3.37067 4.23467 3.136 5.488 3.136 6.928C3.136 9.08267 3.744 10.16 4.96 10.16C5.68533 10.16 6.496 9.76533 7.392 8.976L8.144 9.728C8.05867 9.86667 7.84 10.096 7.488 10.416C7.136 10.7253 6.8 10.976 6.48 11.168C6.17067 11.36 5.776 11.536 5.296 11.696C4.82667 11.856 4.352 11.936 3.872 11.936Z" fill="white"/>
<path d="M14.246 0.848C14.246 1.59467 13.974 3.13067 13.43 5.456C14.3473 4.93333 15.0673 4.672 15.59 4.672C16.1233 4.672 16.518 4.816 16.774 5.104C17.03 5.38133 17.158 5.73333 17.158 6.16C17.158 6.576 17.0407 7.23733 16.806 8.144C16.5713 9.04 16.454 9.62667 16.454 9.904C16.454 10.1813 16.4967 10.32 16.582 10.32L17.414 10.096L17.702 10.896C17.3713 11.1413 16.9127 11.376 16.326 11.6C15.75 11.824 15.238 11.936 14.79 11.936C13.926 11.936 13.494 11.4453 13.494 10.464C13.494 10.016 13.606 9.35467 13.83 8.48C14.054 7.60533 14.166 7.056 14.166 6.832C14.166 6.59733 14.086 6.48 13.926 6.48C13.702 6.48 13.43 6.58667 13.11 6.8C12.63 8.83733 12.39 10.256 12.39 11.056L12.406 11.44C11.318 11.728 10.342 11.872 9.478 11.872C9.414 11.84 9.382 11.6693 9.382 11.36C9.382 10.6987 9.69667 9.06133 10.326 6.448C10.966 3.83467 11.286 2.07467 11.286 1.168C11.286 0.890667 11.2647 0.645333 11.222 0.432C12.2567 0.144 13.2273 0 14.134 0C14.2087 0.181334 14.246 0.464 14.246 0.848Z" fill="white"/>
<path d="M18.9691 11.84H18.8411C18.8091 11.6907 18.7931 11.4613 18.7931 11.152C18.7931 10.832 18.9211 10.016 19.1771 8.704C19.4438 7.38133 19.5771 6.63467 19.5771 6.464C19.5771 6.28267 19.5291 6.10133 19.4331 5.92C19.3371 5.728 19.2411 5.584 19.1451 5.488L19.0011 5.344L19.0331 5.104C19.6731 4.90133 20.7345 4.8 22.2171 4.8C22.3558 5.06667 22.4411 5.38133 22.4731 5.744C23.1238 5.01867 23.6998 4.656 24.2011 4.656C24.8518 4.656 25.2091 5.20533 25.2731 6.304C25.2518 6.32533 25.2251 6.36267 25.1931 6.416C25.1611 6.45867 25.0865 6.53867 24.9691 6.656C24.8518 6.77333 24.7291 6.88 24.6011 6.976C24.2385 7.22133 23.8545 7.36533 23.4491 7.408C23.4385 7.408 23.3638 7.29067 23.2251 7.056C23.0971 6.82133 22.9851 6.704 22.8891 6.704C22.8038 6.704 22.6385 6.8 22.3931 6.992C22.3611 7.184 22.2971 7.50933 22.2011 7.968C22.1158 8.42667 22.0465 8.80533 21.9931 9.104C21.8331 9.89333 21.7531 10.5547 21.7531 11.088L21.7691 11.568C21.2998 11.7493 20.3665 11.84 18.9691 11.84Z" fill="white"/>
<path d="M27.9587 11.936C27.1267 11.936 26.4707 11.6747 25.9907 11.152C25.5107 10.6187 25.2708 9.872 25.2708 8.912C25.2708 7.73867 25.6174 6.74667 26.3107 5.936C27.0041 5.11467 27.9161 4.704 29.0468 4.704L29.7668 4.768C30.0228 4.69333 30.2627 4.656 30.4867 4.656C31.0201 4.656 31.3988 4.83733 31.6228 5.2C31.8574 5.56267 31.9908 6.08 32.0228 6.752C32.4707 6.73067 32.8974 6.66133 33.3027 6.544L33.5267 6.48C33.6014 6.55467 33.6547 6.77867 33.6867 7.152L33.7028 7.328C33.2228 7.57333 32.6361 7.76533 31.9428 7.904C31.7081 9.03467 31.2441 9.98933 30.5508 10.768C29.8574 11.5467 28.9934 11.936 27.9587 11.936ZM28.2787 8.848C28.2787 9.84 28.5294 10.336 29.0308 10.336C29.3827 10.336 29.7401 10.112 30.1028 9.664C30.4761 9.216 30.7321 8.672 30.8708 8.032C29.7828 8.032 29.2388 7.50933 29.2388 6.464C29.2388 6.28267 29.2548 6.096 29.2868 5.904C29.1801 5.904 29.1001 5.92 29.0468 5.952C28.8654 6.144 28.6894 6.53333 28.5187 7.12C28.3587 7.696 28.2787 8.272 28.2787 8.848Z" fill="white"/>
<path d="M33.4234 11.84H33.1514C33.1514 11.1787 33.3007 10.176 33.5994 8.832C33.9087 7.488 34.0634 6.71467 34.0634 6.512C34.0634 6.30933 34.0154 6.112 33.9194 5.92C33.8234 5.728 33.7274 5.584 33.6314 5.488L33.4874 5.344L33.5194 5.104C34.1487 4.90133 35.2474 4.8 36.8154 4.8C36.922 5.04533 36.9967 5.30133 37.0394 5.568C38.01 4.97067 38.826 4.672 39.4874 4.672C39.9354 4.672 40.2874 4.82133 40.5434 5.12C40.7994 5.408 40.9274 5.76 40.9274 6.176C40.9274 6.58133 40.81 7.23733 40.5754 8.144C40.3407 9.05067 40.2234 9.64267 40.2234 9.92C40.2234 10.1867 40.2607 10.32 40.3354 10.32L41.1834 10.096L41.4714 10.896C41.13 11.152 40.682 11.392 40.1274 11.616C39.5834 11.8293 39.082 11.936 38.6234 11.936C37.7167 11.936 37.2634 11.4667 37.2634 10.528C37.2634 10.1227 37.3754 9.46133 37.5994 8.544C37.8234 7.62667 37.9354 7.056 37.9354 6.832C37.9354 6.59733 37.8607 6.48 37.7114 6.48C37.5194 6.48 37.2634 6.58667 36.9434 6.8C36.9007 6.992 36.794 7.456 36.6234 8.192C36.282 9.73867 36.1114 10.8533 36.1114 11.536C35.5887 11.7387 34.6927 11.84 33.4234 11.84Z" fill="white"/>
<path d="M44.9588 11.936C44.1268 11.936 43.4707 11.6747 42.9907 11.152C42.5107 10.6187 42.2707 9.872 42.2707 8.912C42.2707 7.73867 42.6174 6.74667 43.3107 5.936C44.0041 5.11467 44.9161 4.704 46.0467 4.704L46.7668 4.768C47.0228 4.69333 47.2628 4.656 47.4868 4.656C48.0201 4.656 48.3988 4.83733 48.6227 5.2C48.8574 5.56267 48.9907 6.08 49.0228 6.752C49.4707 6.73067 49.8974 6.66133 50.3027 6.544L50.5267 6.48C50.6014 6.55467 50.6547 6.77867 50.6867 7.152L50.7028 7.328C50.2228 7.57333 49.6361 7.76533 48.9427 7.904C48.7081 9.03467 48.2441 9.98933 47.5508 10.768C46.8574 11.5467 45.9934 11.936 44.9588 11.936ZM45.2788 8.848C45.2788 9.84 45.5294 10.336 46.0308 10.336C46.3828 10.336 46.7401 10.112 47.1027 9.664C47.4761 9.216 47.7321 8.672 47.8708 8.032C46.7827 8.032 46.2388 7.50933 46.2388 6.464C46.2388 6.28267 46.2547 6.096 46.2868 5.904C46.1801 5.904 46.1001 5.92 46.0467 5.952C45.8654 6.144 45.6894 6.53333 45.5187 7.12C45.3587 7.696 45.2788 8.272 45.2788 8.848Z" fill="white"/>
<path d="M57.1594 8.816C57.1594 9.70133 56.7327 10.4427 55.8794 11.04C55.0367 11.6373 54.0554 11.936 52.9354 11.936C52.0607 11.936 51.3194 11.7493 50.7114 11.376C50.114 11.0027 49.8154 10.6453 49.8154 10.304C49.986 9.888 50.3114 9.44 50.7914 8.96C51.2714 8.48 51.714 8.22933 52.1194 8.208C52.386 8.32533 52.6314 8.61867 52.8554 9.088C53.09 9.54667 53.2767 10.08 53.4154 10.688C53.9914 10.6667 54.2794 10.3413 54.2794 9.712C54.2794 9.296 54.1194 8.78933 53.7994 8.192C53.49 7.584 53.1487 7.01867 52.7754 6.496C52.402 5.97333 52.0554 5.392 51.7354 4.752C51.426 4.112 51.2714 3.552 51.2714 3.072C51.2714 2.28267 51.634 1.63733 52.3594 1.136C53.0847 0.634666 53.89 0.384 54.7754 0.384C55.6714 0.384 56.3647 0.576 56.8554 0.96C57.3567 1.344 57.6074 1.78667 57.6074 2.288C57.6074 2.704 57.522 3.04 57.3514 3.296C57.1807 3.54133 57.042 3.73333 56.9354 3.872C56.8394 4 56.706 4.13867 56.5354 4.288C56.2154 4.56533 55.97 4.768 55.7994 4.896L55.5594 5.072C56.1887 5.85067 56.6634 6.75733 56.9834 7.792C57.1007 8.16533 57.1594 8.50667 57.1594 8.816ZM56.3274 2.4C56.3274 1.89867 56.0074 1.648 55.3674 1.648C54.994 1.648 54.69 1.728 54.4554 1.888C54.2314 2.048 54.1194 2.25067 54.1194 2.496C54.1194 2.73067 54.2154 3.01867 54.4074 3.36C54.61 3.70133 54.77 3.94133 54.8874 4.08C55.1434 3.952 55.4474 3.71733 55.7994 3.376C56.1514 3.03467 56.3274 2.70933 56.3274 2.4Z" fill="white"/>
<path d="M58.6164 16.0575C58.531 15.9188 55.7994 16.0095 55.7994 15.5615C-2.83607 18.4734 58.691 13.5135 59.0964 11.5295C59.5124 9.54548 59.7204 8.30281 59.7204 7.80148C59.7204 7.30015 59.6724 6.92148 59.5764 6.66548C59.4804 6.39881 59.3844 6.22815 59.2884 6.15348L59.1444 6.04148L59.1764 5.80148C59.8164 5.59881 60.899 5.49748 62.4244 5.49748C62.5097 5.65748 62.579 5.86548 62.6324 6.12148C63.315 5.63081 63.9604 5.38548 64.5684 5.38548C65.1764 5.38548 65.6724 5.62015 66.0564 6.08948C66.451 6.54815 66.6484 7.33215 66.6484 8.44148C66.6484 9.55081 66.355 10.5321 65.7684 11.3855C65.1924 12.2388 64.3444 12.6655 63.2244 12.6655C62.7337 12.6655 62.2537 12.5695 61.7844 12.3775C61.539 13.5828 61.4164 14.6441 61.4164 15.5615C60.6484 15.8388 59.715 16.0041 58.6164 16.0575ZM62.4884 11.3215C62.7764 11.3215 63.0217 11.1081 63.2244 10.6815C63.587 9.93481 63.7684 9.02814 63.7684 7.96148C63.7684 7.33214 63.6137 7.01748 63.3044 7.01748C63.1444 7.01748 62.931 7.07615 62.6644 7.19348C62.6004 8.08948 59.7204 5.73748 62.0244 11.2415C62.2057 11.2948 62.3604 11.3215 62.4884 11.3215Z" fill="white"/>
<path d="M72.1679 0.848C72.1679 1.59467 71.8959 3.13067 71.3519 5.456C72.2692 4.93333 72.9892 4.672 73.5119 4.672C74.0452 4.672 74.4399 4.816 74.6959 5.104C74.9519 5.38133 75.0799 5.73333 75.0799 6.16C75.0799 6.576 74.9625 7.23733 74.7279 8.144C74.4932 9.04 74.3759 9.62667 74.3759 9.904C74.3759 10.1813 74.4185 10.32 74.5039 10.32L75.3359 10.096L75.6239 10.896C75.2932 11.1413 74.8345 11.376 74.2479 11.6C73.6719 11.824 73.1599 11.936 72.7119 11.936C71.8479 11.936 71.4159 11.4453 71.4159 10.464C71.4159 10.016 71.5279 9.35467 71.7519 8.48C71.9759 7.60533 72.0879 7.056 72.0879 6.832C72.0879 6.59733 72.0079 6.48 71.8479 6.48C71.6239 6.48 71.3519 6.58667 71.0319 6.8C70.5519 8.83733 70.3119 10.256 70.3119 11.056L70.3279 11.44C69.2399 11.728 68.2639 11.872 67.3999 11.872C67.3359 11.84 67.3039 11.6693 67.3039 11.36C67.3039 10.6987 67.6185 9.06133 68.2479 6.448C68.8879 3.83467 69.2079 2.07467 69.2079 1.168C69.2079 0.890667 69.1865 0.645333 69.1439 0.432C70.1785 0.144 71.1492 0 72.0559 0C72.1305 0.181334 72.1679 0.464 72.1679 0.848Z" fill="white"/>
<path d="M76.427 8.848C76.427 7.52533 76.827 6.496 77.627 5.76C78.4377 5.024 79.435 4.656 80.619 4.656C81.4403 4.656 82.0963 4.83733 82.587 5.2C83.0883 5.552 83.339 6.02667 83.339 6.624C83.339 7.06133 83.2057 7.45067 82.939 7.792C82.6723 8.13333 82.347 8.39467 81.963 8.576C81.1523 8.93867 80.4483 9.15733 79.851 9.232L79.451 9.28C79.5683 9.984 79.9203 10.336 80.507 10.336C80.763 10.336 81.0457 10.2827 81.355 10.176C81.6643 10.0587 81.9097 9.94133 82.091 9.824L82.363 9.664L82.875 10.352C82.875 10.352 82.8163 10.4107 82.699 10.528C82.635 10.592 82.4803 10.72 82.235 10.912C82.0003 11.0933 81.7497 11.2533 81.483 11.392C81.227 11.5307 80.8963 11.6533 80.491 11.76C80.0857 11.8773 79.6803 11.936 79.275 11.936C78.3683 11.936 77.6643 11.6747 77.163 11.152C76.6723 10.6187 76.427 9.85067 76.427 8.848ZM79.387 8.224C79.6963 8.18133 80.0057 7.93067 80.315 7.472C80.6243 7.00267 80.779 6.61333 80.779 6.304C80.779 5.984 80.6883 5.824 80.507 5.824C80.2403 5.824 79.995 6.032 79.771 6.448C79.547 6.864 79.419 7.456 79.387 8.224Z" fill="white"/>
<path d="M84.3597 11.84H84.2318C84.1998 11.6907 84.1837 11.4613 84.1837 11.152C84.1837 10.832 84.3118 10.016 84.5677 8.704C84.8344 7.38133 84.9678 6.63467 84.9678 6.464C84.9678 6.28267 84.9198 6.10133 84.8238 5.92C84.7278 5.728 84.6318 5.584 84.5358 5.488L84.3917 5.344L84.4238 5.104C85.0638 4.90133 86.1251 4.8 87.6077 4.8C87.7464 5.06667 87.8317 5.38133 87.8637 5.744C88.5144 5.01867 89.0904 4.656 89.5918 4.656C90.2424 4.656 90.5997 5.20533 90.6637 6.304C90.6424 6.32533 90.6157 6.36267 90.5837 6.416C90.5518 6.45867 90.4771 6.53867 90.3597 6.656C90.2424 6.77333 90.1198 6.88 89.9918 6.976C89.6291 7.22133 89.2451 7.36533 88.8398 7.408C88.8291 7.408 88.7544 7.29067 88.6158 7.056C88.4878 6.82133 88.3757 6.704 88.2797 6.704C88.1944 6.704 88.0291 6.8 87.7838 6.992C87.7518 7.184 87.6878 7.50933 87.5918 7.968C87.5064 8.42667 87.4371 8.80533 87.3838 9.104C87.2237 9.89333 87.1438 10.5547 87.1438 11.088L87.1598 11.568C86.6904 11.7493 85.7571 11.84 84.3597 11.84Z" fill="white"/>
<path d="M90.6614 8.848C90.6614 7.52533 91.0614 6.496 91.8614 5.76C92.672 5.024 93.6694 4.656 94.8534 4.656C95.6747 4.656 96.3307 4.83733 96.8214 5.2C97.3227 5.552 97.5734 6.02667 97.5734 6.624C97.5734 7.06133 97.44 7.45067 97.1734 7.792C96.9067 8.13333 96.5814 8.39467 96.1974 8.576C95.3867 8.93867 94.6827 9.15733 94.0854 9.232L93.6854 9.28C93.8027 9.984 94.1547 10.336 94.7414 10.336C94.9974 10.336 95.28 10.2827 95.5894 10.176C95.8987 10.0587 96.144 9.94133 96.3254 9.824L96.5974 9.664L97.1094 10.352C97.1094 10.352 97.0507 10.4107 96.9334 10.528C96.8694 10.592 96.7147 10.72 96.4694 10.912C96.2347 11.0933 95.984 11.2533 95.7174 11.392C95.4614 11.5307 95.1307 11.6533 94.7254 11.76C94.32 11.8773 93.9147 11.936 93.5094 11.936C92.6027 11.936 91.8987 11.6747 91.3974 11.152C90.9067 10.6187 90.6614 9.85067 90.6614 8.848ZM93.6214 8.224C93.9307 8.18133 94.24 7.93067 94.5494 7.472C94.8587 7.00267 95.0134 6.61333 95.0134 6.304C95.0134 5.984 94.9227 5.824 94.7414 5.824C94.4747 5.824 94.2294 6.032 94.0054 6.448C93.7814 6.864 93.6534 7.456 93.6214 8.224Z" fill="white"/>
</svg>
