<svg width="18" height="18" viewBox="0 0 18 18" fill="none" xmlns="http://www.w3.org/2000/svg">
<path d="M9 0.875C7.39303 0.875 5.82214 1.35152 4.486 2.24431C3.14985 3.1371 2.10844 4.40605 1.49348 5.8907C0.87852 7.37535 0.717618 9.00901 1.03112 10.5851C1.34463 12.1612 2.11846 13.6089 3.25476 14.7452C4.39106 15.8815 5.8388 16.6554 7.4149 16.9689C8.99099 17.2824 10.6247 17.1215 12.1093 16.5065C13.594 15.8916 14.8629 14.8502 15.7557 13.514C16.6485 12.1779 17.125 10.607 17.125 9C17.1209 6.84638 16.2635 4.78216 14.7407 3.25932C13.2178 1.73648 11.1536 0.87913 9 0.875ZM9 15.875C7.64026 15.875 6.31105 15.4718 5.18046 14.7164C4.04987 13.9609 3.16868 12.8872 2.64833 11.6309C2.12798 10.3747 1.99183 8.99237 2.2571 7.65875C2.52238 6.32513 3.17716 5.10013 4.13864 4.13864C5.10013 3.17716 6.32514 2.52237 7.65876 2.2571C8.99238 1.99183 10.3747 2.12798 11.631 2.64833C12.8872 3.16868 13.9609 4.04987 14.7164 5.18045C15.4718 6.31104 15.875 7.64025 15.875 9C15.8729 10.8227 15.1479 12.5702 13.8591 13.8591C12.5702 15.1479 10.8227 15.8729 9 15.875ZM6.5 9C6.5 9.52471 6.6651 10.0361 6.9719 10.4618C7.2787 10.8874 7.71165 11.2058 8.20943 11.3717C8.70721 11.5376 9.24458 11.5427 9.74542 11.3863C10.2463 11.2298 10.6852 10.9198 11 10.5C11.1007 10.3691 11.2486 10.2828 11.4121 10.2594C11.5755 10.2361 11.7417 10.2775 11.875 10.375C12.0076 10.4745 12.0953 10.6225 12.1187 10.7866C12.1422 10.9507 12.0995 11.1174 12 11.25C11.5278 11.8796 10.8694 12.3448 10.1181 12.5794C9.36687 12.8141 8.56082 12.8065 7.81415 12.5576C7.06748 12.3087 6.41805 11.8312 5.95785 11.1927C5.49764 10.5542 5.25 9.78706 5.25 9C5.25 8.21294 5.49764 7.44583 5.95785 6.80734C6.41805 6.16884 7.06748 5.69133 7.81415 5.44244C8.56082 5.19355 9.36687 5.1859 10.1181 5.42057C10.8694 5.65525 11.5278 6.12035 12 6.75C12.0995 6.88261 12.1422 7.04929 12.1187 7.21339C12.0953 7.37748 12.0076 7.52554 11.875 7.625C11.7417 7.72246 11.5755 7.76394 11.4121 7.74058C11.2486 7.71723 11.1007 7.63089 11 7.5C10.6852 7.08024 10.2463 6.77017 9.74542 6.61372C9.24458 6.45727 8.70721 6.46237 8.20943 6.62829C7.71165 6.79422 7.2787 7.11256 6.9719 7.53822C6.6651 7.96389 6.5 8.47529 6.5 9Z" fill="white"/>
</svg>
