<svg width="26" height="26" viewBox="0 0 26 26" fill="none" xmlns="http://www.w3.org/2000/svg">
<path d="M13 7C11.8133 7 10.6533 7.35189 9.66658 8.01118C8.67988 8.67047 7.91085 9.60754 7.45672 10.7039C7.0026 11.8003 6.88378 13.0067 7.11529 14.1705C7.3468 15.3344 7.91824 16.4035 8.75736 17.2426C9.59647 18.0818 10.6656 18.6532 11.8295 18.8847C12.9933 19.1162 14.1997 18.9974 15.2961 18.5433C16.3925 18.0892 17.3295 17.3201 17.9888 16.3334C18.6481 15.3467 19 14.1867 19 13C19 11.4087 18.3679 9.88258 17.2426 8.75736C16.1174 7.63214 14.5913 7 13 7ZM13 17C12.2089 17 11.4355 16.7654 10.7777 16.3259C10.1199 15.8864 9.60723 15.2616 9.30448 14.5307C9.00173 13.7998 8.92252 12.9956 9.07686 12.2196C9.2312 11.4437 9.61216 10.731 10.1716 10.1716C10.731 9.61216 11.4437 9.2312 12.2196 9.07686C12.9956 8.92252 13.7998 9.00173 14.5307 9.30448C15.2616 9.60723 15.8864 10.1199 16.3259 10.7777C16.7654 11.4355 17 12.2089 17 13C16.9967 14.0599 16.5742 15.0754 15.8248 15.8248C15.0754 16.5742 14.0599 16.9967 13 17ZM18.5 0.5H7.5C5.64348 0.5 3.86301 1.2375 2.55025 2.55025C1.2375 3.86301 0.5 5.64348 0.5 7.5V18.5C0.5 20.3565 1.2375 22.137 2.55025 23.4497C3.86301 24.7625 5.64348 25.5 7.5 25.5H18.5C20.3565 25.5 22.137 24.7625 23.4497 23.4497C24.7625 22.137 25.5 20.3565 25.5 18.5V7.5C25.5 5.64348 24.7625 3.86301 23.4497 2.55025C22.137 1.2375 20.3565 0.5 18.5 0.5ZM23.5 18.5C23.5 19.1566 23.3707 19.8068 23.1194 20.4134C22.8681 21.02 22.4998 21.5712 22.0355 22.0355C21.5712 22.4998 21.02 22.8681 20.4134 23.1194C19.8068 23.3707 19.1566 23.5 18.5 23.5H7.5C6.84339 23.5 6.19321 23.3707 5.58658 23.1194C4.97996 22.8681 4.42876 22.4998 3.96447 22.0355C3.50017 21.5712 3.13188 21.02 2.8806 20.4134C2.62933 19.8068 2.5 19.1566 2.5 18.5V7.5C2.5 6.17392 3.02678 4.90215 3.96447 3.96447C4.90215 3.02678 6.17392 2.5 7.5 2.5H18.5C19.1566 2.5 19.8068 2.62933 20.4134 2.8806C21.02 3.13188 21.5712 3.50017 22.0355 3.96447C22.4998 4.42876 22.8681 4.97996 23.1194 5.58658C23.3707 6.19321 23.5 6.84339 23.5 7.5V18.5ZM21 6.5C21 6.79667 20.912 7.08668 20.7472 7.33335C20.5824 7.58003 20.3481 7.77229 20.074 7.88582C19.7999 7.99935 19.4983 8.02906 19.2074 7.97118C18.9164 7.9133 18.6491 7.77044 18.4393 7.56066C18.2296 7.35088 18.0867 7.08361 18.0288 6.79264C17.9709 6.50166 18.0007 6.20006 18.1142 5.92597C18.2277 5.65189 18.42 5.41762 18.6666 5.2528C18.9133 5.08797 19.2033 5 19.5 5C19.8978 5 20.2794 5.15804 20.5607 5.43934C20.842 5.72064 21 6.10218 21 6.5Z" fill="white"/>
</svg>
