<svg width="31" height="43" viewBox="0 0 31 43" fill="none" xmlns="http://www.w3.org/2000/svg">
<path d="M30.7867 21.7725C30.7861 19.4176 30.2307 17.0959 29.1655 14.9958C28.1002 12.8956 26.5551 11.0759 24.6554 9.68434L23.4854 3.23809C23.3602 2.54649 22.9962 1.92081 22.4568 1.4702C21.9175 1.01958 21.237 0.772642 20.5342 0.772461H11.0392C10.3363 0.772642 9.65589 1.01958 9.11652 1.4702C8.57715 1.92081 8.21312 2.54649 8.08792 3.23809L6.91792 9.68434C5.01769 11.0755 3.47218 12.895 2.40682 14.9953C1.34146 17.0956 0.786255 19.4174 0.786255 21.7725C0.786255 24.1275 1.34146 26.4494 2.40682 28.5496C3.47218 30.6499 5.01769 32.4694 6.91792 33.8606L8.08792 40.3068C8.21312 40.9984 8.57715 41.6241 9.11652 42.0747C9.65589 42.5253 10.3363 42.7723 11.0392 42.7725H20.5342C21.237 42.7723 21.9175 42.5253 22.4568 42.0747C22.9962 41.6241 23.3602 40.9984 23.4854 40.3068L24.6554 33.8606C26.5551 32.469 28.1002 30.6493 29.1655 28.5492C30.2307 26.449 30.7861 24.1273 30.7867 21.7725ZM11.0392 3.77246H20.5342L21.2673 7.81309C17.7453 6.42564 13.8281 6.42564 10.306 7.81309L11.0392 3.77246ZM3.78667 21.7725C3.78667 19.3991 4.49046 17.079 5.80904 15.1056C7.12761 13.1322 9.00176 11.5942 11.1945 10.6859C13.3872 9.77766 15.8 9.54002 18.1278 10.003C20.4555 10.4661 22.5937 11.6089 24.272 13.2872C25.9502 14.9654 27.0931 17.1036 27.5561 19.4314C28.0191 21.7591 27.7815 24.1719 26.8732 26.3647C25.965 28.5574 24.4269 30.4315 22.4535 31.7501C20.4801 33.0687 18.16 33.7725 15.7867 33.7725C12.6051 33.769 9.55491 32.5036 7.30523 30.2539C5.05555 28.0042 3.79015 24.954 3.78667 21.7725ZM20.5342 39.7725H11.0392L10.306 35.7318C13.8281 37.1193 17.7453 37.1193 21.2673 35.7318L20.5342 39.7725ZM14.2867 21.7725V14.2725C14.2867 13.8746 14.4447 13.4931 14.726 13.2118C15.0073 12.9305 15.3888 12.7725 15.7867 12.7725C16.1845 12.7725 16.566 12.9305 16.8473 13.2118C17.1286 13.4931 17.2867 13.8746 17.2867 14.2725V20.2725H23.2867C23.6845 20.2725 24.066 20.4305 24.3473 20.7118C24.6286 20.9931 24.7867 21.3746 24.7867 21.7725C24.7867 22.1703 24.6286 22.5518 24.3473 22.8331C24.066 23.1144 23.6845 23.2725 23.2867 23.2725H15.7867C15.3888 23.2725 15.0073 23.1144 14.726 22.8331C14.4447 22.5518 14.2867 22.1703 14.2867 21.7725Z" fill="black"/>
</svg>
