<svg width="28" height="22" viewBox="0 0 28 22" fill="none" xmlns="http://www.w3.org/2000/svg">
<path d="M28 10.9123C28 10.8436 28 10.7654 27.9969 10.6748C27.9938 10.4217 27.9875 10.1373 27.9813 9.83418C27.9563 8.96231 27.9125 8.09355 27.8438 7.2748C27.75 6.14668 27.6125 5.20605 27.425 4.4998C27.2271 3.76277 26.8393 3.09058 26.3002 2.55042C25.7612 2.01026 25.0898 1.62104 24.3531 1.42168C23.4688 1.18418 21.7375 1.0373 19.3 0.94668C18.1406 0.90293 16.9 0.874804 15.6594 0.859179C15.225 0.852929 14.8219 0.849805 14.4594 0.84668H13.5406C13.1781 0.849805 12.775 0.852929 12.3406 0.859179C11.1 0.874804 9.85938 0.90293 8.7 0.94668C6.2625 1.04043 4.52812 1.1873 3.64687 1.42168C2.91 1.62055 2.23834 2.0096 1.6992 2.54984C1.16006 3.09008 0.772375 3.76253 0.575 4.4998C0.384375 5.20605 0.25 6.14668 0.15625 7.2748C0.0875 8.09355 0.04375 8.96231 0.01875 9.83418C0.00937495 10.1373 0.00624995 10.4217 0.00312495 10.6748C0.00312495 10.7654 0 10.8436 0 10.9123V11.0873C0 11.1561 -4.77303e-08 11.2342 0.00312495 11.3248C0.00624995 11.5779 0.0125 11.8623 0.01875 12.1654C0.04375 13.0373 0.0875 13.9061 0.15625 14.7248C0.25 15.8529 0.3875 16.7936 0.575 17.4998C0.975 18.9967 2.15 20.1779 3.64687 20.5779C4.52812 20.8154 6.2625 20.9623 8.7 21.0529C9.85938 21.0967 11.1 21.1248 12.3406 21.1404C12.775 21.1467 13.1781 21.1498 13.5406 21.1529H14.4594C14.8219 21.1498 15.225 21.1467 15.6594 21.1404C16.9 21.1248 18.1406 21.0967 19.3 21.0529C21.7375 20.9592 23.4719 20.8123 24.3531 20.5779C25.85 20.1779 27.025 18.9998 27.425 17.4998C27.6156 16.7936 27.75 15.8529 27.8438 14.7248C27.9125 13.9061 27.9563 13.0373 27.9813 12.1654C27.9906 11.8623 27.9938 11.5779 27.9969 11.3248C27.9969 11.2342 28 11.1561 28 11.0873V10.9123ZM25.75 11.0748C25.75 11.1404 25.75 11.2123 25.7469 11.2967C25.7438 11.5404 25.7375 11.8092 25.7313 12.0998C25.7094 12.9311 25.6656 13.7623 25.6 14.5342C25.5156 15.5404 25.3969 16.3654 25.25 16.9186C25.0562 17.6404 24.4875 18.2123 23.7687 18.4029C23.1125 18.5779 21.4594 18.7186 19.2125 18.8029C18.075 18.8467 16.85 18.8748 15.6281 18.8904C15.2 18.8967 14.8031 18.8998 14.4469 18.8998H13.5531L12.3719 18.8904C11.15 18.8748 9.92813 18.8467 8.7875 18.8029C6.54063 18.7154 4.88437 18.5779 4.23125 18.4029C3.5125 18.2092 2.94375 17.6404 2.75 16.9186C2.60313 16.3654 2.48438 15.5404 2.4 14.5342C2.33438 13.7623 2.29375 12.9311 2.26875 12.0998C2.25938 11.8092 2.25625 11.5373 2.25313 11.2967C2.25313 11.2123 2.25 11.1373 2.25 11.0748V10.9248C2.25 10.8592 2.25 10.7873 2.25313 10.7029C2.25625 10.4592 2.2625 10.1904 2.26875 9.8998C2.29063 9.06855 2.33438 8.2373 2.4 7.46543C2.48438 6.45918 2.60313 5.63418 2.75 5.08105C2.94375 4.35918 3.5125 3.7873 4.23125 3.59668C4.8875 3.42168 6.54063 3.28105 8.7875 3.19668C9.925 3.15293 11.15 3.1248 12.3719 3.10918C12.8 3.10293 13.1969 3.0998 13.5531 3.0998H14.4469L15.6281 3.10918C16.85 3.1248 18.0719 3.15293 19.2125 3.19668C21.4594 3.28418 23.1156 3.42168 23.7687 3.59668C24.4875 3.79043 25.0562 4.35918 25.25 5.08105C25.3969 5.63418 25.5156 6.45918 25.6 7.46543C25.6656 8.2373 25.7063 9.06855 25.7313 9.8998C25.7406 10.1904 25.7438 10.4623 25.7469 10.7029C25.7469 10.7873 25.75 10.8623 25.75 10.9248V11.0748ZM11.2188 15.1873L18.4688 10.9686L11.2188 6.8123V15.1873Z" fill="white"/>
</svg>
